0
SECTION
2
HEADER
9
$INSUNITS
70
4
0
ENDSEC
0
SECTION
2
TABLES
0
TABLE
2
LTYPE
0
LTYPE
72
65
70
64
2
CONTINUOUS
3
______
73
0
40
0
0
ENDTAB
0
TABLE
2
LAYER
0
ENDTAB
0
ENDSEC
0
SECTION
2
ENTITIES
0
LINE
8
0
10
-10.5381947
20
8.3395265
11
7.8312779
21
10.9211875
0
LINE
8
0
10
7.8312779
20
10.9211875
11
5.2496169
21
29.2906601
0
LINE
8
0
10
5.2496169
20
29.2906601
11
-13.1198557
21
26.7089991
0
LINE
8
0
10
-13.1198557
20
26.7089991
11
-10.5381947
21
8.3395265
0
LINE
8
0
10
-13.1824836
20
27.1546198
11
5.186989
21
29.7362808
0
LINE
8
0
10
5.186989
20
29.7362808
11
2.605328
21
48.1057534
0
LINE
8
0
10
2.605328
20
48.1057534
11
-15.7641446
21
45.5240924
0
LINE
8
0
10
-15.7641446
20
45.5240924
11
-13.1824836
21
27.1546198
0
LINE
8
0
10
-15.8267725
20
45.9697131
11
2.5427001
21
48.5513741
0
LINE
8
0
10
2.5427001
20
48.5513741
11
-0.0389609
21
66.9208467
0
LINE
8
0
10
-0.0389609
20
66.9208467
11
-18.4084335
21
64.3391857
0
LINE
8
0
10
-18.4084335
20
64.3391857
11
-15.8267725
21
45.9697131
0
LINE
8
0
10
-18.4710614
20
64.7848064
11
-0.1015888
21
67.3664674
0
LINE
8
0
10
-0.1015888
20
67.3664674
11
-2.6832498
21
85.73594
0
LINE
8
0
10
-2.6832498
20
85.73594
11
-21.0527224
21
83.154279
0
LINE
8
0
10
-21.0527224
20
83.154279
11
-18.4710614
21
64.7848064
0
LINE
8
0
10
10.9211875
20
-7.8312779
11
29.2906601
21
-5.2496169
0
LINE
8
0
10
29.2906601
20
-5.2496169
11
26.7089991
21
13.1198557
0
LINE
8
0
10
26.7089991
20
13.1198557
11
8.3395265
21
10.5381947
0
LINE
8
0
10
8.3395265
20
10.5381947
11
10.9211875
21
-7.8312779
0
LINE
8
0
10
8.2768986
20
10.9838154
11
26.6463712
21
13.5654764
0
LINE
8
0
10
26.6463712
20
13.5654764
11
24.0647102
21
31.934949
0
LINE
8
0
10
24.0647102
20
31.934949
11
5.6952376
21
29.353288
0
LINE
8
0
10
5.6952376
20
29.353288
11
8.2768986
21
10.9838154
0
LINE
8
0
10
5.6326097
20
29.7989087
11
24.0020823
21
32.3805697
0
LINE
8
0
10
24.0020823
20
32.3805697
11
21.4204213
21
50.7500423
0
LINE
8
0
10
21.4204213
20
50.7500423
11
3.0509487
21
48.1683813
0
LINE
8
0
10
3.0509487
20
48.1683813
11
5.6326097
21
29.7989087
0
LINE
8
0
10
2.9883208
20
48.614002
11
21.3577934
21
51.195663
0
LINE
8
0
10
21.3577934
20
51.195663
11
18.7761324
21
69.5651356
0
LINE
8
0
10
18.7761324
20
69.5651356
11
0.4066598
21
66.9834746
0
LINE
8
0
10
0.4066598
20
66.9834746
11
2.9883208
21
48.614002
0
LINE
8
0
10
0.3440319
20
67.4290953
11
18.7135045
21
70.0107563
0
LINE
8
0
10
18.7135045
20
70.0107563
11
16.1318435
21
88.3802289
0
LINE
8
0
10
16.1318435
20
88.3802289
11
-2.2376291
21
85.7985679
0
LINE
8
0
10
-2.2376291
20
85.7985679
11
0.3440319
21
67.4290953
0
LINE
8
0
10
29.3216495
20
0.4800413
11
47.8264627
21
1.7740239
0
LINE
8
0
10
47.8264627
20
1.7740239
11
46.5324801
21
20.2788371
0
LINE
8
0
10
46.5324801
20
20.2788371
11
28.0276669
21
18.9848545
0
LINE
8
0
10
28.0276669
20
18.9848545
11
29.3216495
21
0.4800413
0
LINE
8
0
10
27.9962765
20
19.4337583
11
46.5010897
21
20.7277409
0
LINE
8
0
10
46.5010897
20
20.7277409
11
45.2071071
21
39.2325541
0
LINE
8
0
10
45.2071071
20
39.2325541
11
26.7022939
21
37.9385715
0
LINE
8
0
10
26.7022939
20
37.9385715
11
27.9962765
21
19.4337583
0
LINE
8
0
10
26.6709035
20
38.3874753
11
45.1757167
21
39.6814579
0
LINE
8
0
10
45.1757167
20
39.6814579
11
43.8817341
21
58.1862711
0
LINE
8
0
10
43.8817341
20
58.1862711
11
25.3769209
21
56.8922885
0
LINE
8
0
10
25.3769209
20
56.8922885
11
26.6709035
21
38.3874753
0
LINE
8
0
10
25.3455305
20
57.3411923
11
43.8503437
21
58.6351749
0
LINE
8
0
10
43.8503437
20
58.6351749
11
42.5563611
21
77.1399881
0
LINE
8
0
10
42.5563611
20
77.1399881
11
24.0515479
21
75.8460055
0
LINE
8
0
10
24.0515479
20
75.8460055
11
25.3455305
21
57.3411923
0
LINE
8
0
10
24.0201575
20
76.2949093
11
42.5249707
21
77.5888919
0
LINE
8
0
10
42.5249707
20
77.5888919
11
41.2309881
21
96.0937051
0
LINE
8
0
10
41.2309881
20
96.0937051
11
22.7261749
21
94.7997225
0
LINE
8
0
10
22.7261749
20
94.7997225
11
24.0201575
21
76.2949093
0
LINE
8
0
10
47.2569994
20
26.4176325
11
65.8069994
21
26.4176325
0
LINE
8
0
10
65.8069994
20
26.4176325
11
65.8069994
21
44.9676325
0
LINE
8
0
10
65.8069994
20
44.9676325
11
47.2569994
21
44.9676325
0
LINE
8
0
10
47.2569994
20
44.9676325
11
47.2569994
21
26.4176325
0
LINE
8
0
10
47.2569994
20
45.4176325
11
65.8069994
21
45.4176325
0
LINE
8
0
10
65.8069994
20
45.4176325
11
65.8069994
21
63.9676325
0
LINE
8
0
10
65.8069994
20
63.9676325
11
47.2569994
21
63.9676325
0
LINE
8
0
10
47.2569994
20
63.9676325
11
47.2569994
21
45.4176325
0
LINE
8
0
10
47.2569994
20
64.4176325
11
65.8069994
21
64.4176325
0
LINE
8
0
10
65.8069994
20
64.4176325
11
65.8069994
21
82.9676325
0
LINE
8
0
10
65.8069994
20
82.9676325
11
47.2569994
21
82.9676325
0
LINE
8
0
10
47.2569994
20
82.9676325
11
47.2569994
21
64.4176325
0
LINE
8
0
10
47.2569994
20
83.4176325
11
65.8069994
21
83.4176325
0
LINE
8
0
10
65.8069994
20
83.4176325
11
65.8069994
21
101.9676325
0
LINE
8
0
10
65.8069994
20
101.9676325
11
47.2569994
21
101.9676325
0
LINE
8
0
10
47.2569994
20
101.9676325
11
47.2569994
21
83.4176325
0
LINE
8
0
10
66.9579745
20
23.0409341
11
85.4627877
21
21.7469515
0
LINE
8
0
10
85.4627877
20
21.7469515
11
86.7567703
21
40.2517647
0
LINE
8
0
10
86.7567703
20
40.2517647
11
68.2519571
21
41.5457473
0
LINE
8
0
10
68.2519571
20
41.5457473
11
66.9579745
21
23.0409341
0
LINE
8
0
10
68.2833475
20
41.9946511
11
86.7881607
21
40.7006685
0
LINE
8
0
10
86.7881607
20
40.7006685
11
88.0821433
21
59.2054817
0
LINE
8
0
10
88.0821433
20
59.2054817
11
69.5773301
21
60.4994643
0
LINE
8
0
10
69.5773301
20
60.4994643
11
68.2833475
21
41.9946511
0
LINE
8
0
10
69.6087205
20
60.9483681
11
88.1135337
21
59.6543855
0
LINE
8
0
10
88.1135337
20
59.6543855
11
89.4075163
21
78.1591987
0
LINE
8
0
10
89.4075163
20
78.1591987
11
70.9027031
21
79.4531813
0
LINE
8
0
10
70.9027031
20
79.4531813
11
69.6087205
21
60.9483681
0
LINE
8
0
10
70.9340935
20
79.9020851
11
89.4389067
21
78.6081025
0
LINE
8
0
10
89.4389067
20
78.6081025
11
90.7328893
21
97.1129157
0
LINE
8
0
10
90.7328893
20
97.1129157
11
72.2280761
21
98.4068983
0
LINE
8
0
10
72.2280761
20
98.4068983
11
70.9340935
21
79.9020851
0
LINE
8
0
10
87.1563128
20
18.8178696
11
105.3009508
21
14.9611078
0
LINE
8
0
10
105.3009508
20
14.9611078
11
109.1577126
21
33.1057458
0
LINE
8
0
10
109.1577126
20
33.1057458
11
91.0130746
21
36.9625076
0
LINE
8
0
10
91.0130746
20
36.9625076
11
87.1563128
21
18.8178696
0
LINE
8
0
10
91.1066349
20
37.402674
11
109.2512729
21
33.5459122
0
LINE
8
0
10
109.2512729
20
33.5459122
11
113.1080347
21
51.6905502
0
LINE
8
0
10
113.1080347
20
51.6905502
11
94.9633967
21
55.547312
0
LINE
8
0
10
94.9633967
20
55.547312
11
91.1066349
21
37.402674
0
LINE
8
0
10
95.056957
20
55.9874784
11
113.201595
21
52.1307166
0
LINE
8
0
10
113.201595
20
52.1307166
11
117.0583568
21
70.2753546
0
LINE
8
0
10
117.0583568
20
70.2753546
11
98.9137188
21
74.1321164
0
LINE
8
0
10
98.9137188
20
74.1321164
11
95.056957
21
55.9874784
0
LINE
8
0
10
99.0072791
20
74.5722828
11
117.1519171
21
70.715521
0
LINE
8
0
10
117.1519171
20
70.715521
11
121.0086789
21
88.860159
0
LINE
8
0
10
121.0086789
20
88.860159
11
102.8640409
21
92.7169208
0
LINE
8
0
10
102.8640409
20
92.7169208
11
99.0072791
21
74.5722828
0
LINE
8
0
10
78.9626669
20
-10.110735
11
97.1073049
21
-13.9674968
0
LINE
8
0
10
97.1073049
20
-13.9674968
11
100.9640667
21
4.1771412
0
LINE
8
0
10
100.9640667
20
4.1771412
11
82.8194287
21
8.033903
0
LINE
8
0
10
82.8194287
20
8.033903
11
78.9626669
21
-10.110735
0
LINE
8
0
10
97.5474713
20
-14.0610571
11
115.6921093
21
-17.9178189
0
LINE
8
0
10
115.6921093
20
-17.9178189
11
119.5488711
21
0.2268191
0
LINE
8
0
10
119.5488711
20
0.2268191
11
101.4042331
21
4.0835809
0
LINE
8
0
10
101.4042331
20
4.0835809
11
97.5474713
21
-14.0610571
0
LINE
8
0
10
119.8260944
20
-22.0734279
11
136.498724
21
-30.2052127
0
LINE
8
0
10
136.498724
20
-30.2052127
11
144.6305088
21
-13.5325831
0
LINE
8
0
10
144.6305088
20
-13.5325831
11
127.9578792
21
-5.4007983
0
LINE
8
0
10
127.9578792
20
-5.4007983
11
119.8260944
21
-22.0734279
0
ENDSEC
0
EOF