0
SECTION
2
HEADER
9
$INSUNITS
70
4
0
ENDSEC
0
SECTION
2
TABLES
0
TABLE
2
LTYPE
0
LTYPE
72
65
70
64
2
CONTINUOUS
3
______
73
0
40
0
0
ENDTAB
0
TABLE
2
LAYER
0
ENDTAB
0
ENDSEC
0
SECTION
2
ENTITIES
0
LINE
8
0
10
-12.4531584
20
5.7982838
11
6.3619349
21
8.4425727
0
LINE
8
0
10
-23.5939651
20
85.0692427
11
-12.4531584
21
5.7982838
0
LINE
8
0
10
-23.5939651
20
85.0692427
11
18.0468072
21
90.9214716
0
LINE
8
0
10
9.0062238
20
-10.3725206
11
31.8319028
21
-7.1645806
0
LINE
8
0
10
31.8319028
20
-7.1645806
11
31.0574516
21
-1.6540738
0
LINE
8
0
10
6.3619349
20
8.4425727
11
9.0062238
21
-10.3725206
0
LINE
8
0
10
18.0468072
20
90.9214716
11
23.4107134
21
52.7552953
0
LINE
8
0
10
31.0574516
20
-1.6540738
11
50.2279338
21
-0.3135431
0
LINE
8
0
10
48.5160433
20
24.1676325
11
50.2279338
21
-0.3135431
0
LINE
8
0
10
20.3247038
20
96.8872895
11
23.4107134
21
52.7552953
0
LINE
8
0
10
43.3185551
20
98.4951762
11
45.0069994
21
74.3492976
0
LINE
8
0
10
43.3185551
20
98.4951762
11
20.3247038
21
96.8872895
0
LINE
8
0
10
48.5160433
20
24.1676325
11
64.7812667
21
24.1676325
0
LINE
8
0
10
68.0569994
20
71.0127924
11
68.0569994
21
104.2176325
0
LINE
8
0
10
45.0069994
20
74.3492976
11
45.0069994
21
104.2176325
0
LINE
8
0
10
68.0569994
20
104.2176325
11
45.0069994
21
104.2176325
0
LINE
8
0
10
64.5565034
20
20.9533671
11
85.0060112
21
19.5233982
0
LINE
8
0
10
88.8163059
20
37.4494255
11
93.1343604
21
99.2004827
0
LINE
8
0
10
64.7812667
20
24.1676325
11
64.5565034
21
20.9533671
0
LINE
8
0
10
68.0569994
20
71.0127924
11
70.1405091
21
100.8083694
0
LINE
8
0
10
93.1343604
20
99.2004827
11
70.1405091
21
100.8083694
0
LINE
8
0
10
84.4876794
20
17.0848388
11
107.0339816
21
12.2924744
0
LINE
8
0
10
107.0339816
20
12.2924744
11
123.6773123
21
90.5931898
0
LINE
8
0
10
88.8163059
20
37.4494255
11
101.1310101
21
95.3855542
0
LINE
8
0
10
85.0060112
20
19.5233982
11
84.4876794
21
17.0848388
0
LINE
8
0
10
123.6773123
20
90.5931898
11
101.1310101
21
95.3855542
0
LINE
8
0
10
76.2940335
20
-11.8437658
11
117.4251401
21
-20.5864523
0
LINE
8
0
10
81.0863979
20
10.7025364
11
122.2175045
21
1.9598499
0
LINE
8
0
10
81.0863979
20
10.7025364
11
76.2940335
21
-11.8437658
0
LINE
8
0
10
117.4251401
20
-20.5864523
11
122.2175045
21
1.9598499
0
LINE
8
0
10
116.8174727
20
-23.1093794
11
137.5346755
21
-33.2138344
0
LINE
8
0
10
137.5346755
20
-33.2138344
11
147.6391305
21
-12.4966316
0
LINE
8
0
10
147.6391305
20
-12.4966316
11
126.9219277
21
-2.3921766
0
LINE
8
0
10
126.9219277
20
-2.3921766
11
116.8174727
21
-23.1093794
0
ENDSEC
0
EOF